<svg height="1134" width="720" xmlns="http://www.w3.org/2000/svg">
<rect height="1134" fill="#555" width="720"></rect>
<text fill="#7f7" font-family="Courier New" font-size="12" xml:space="preserve">
<tspan x="10" y="26">8 megabytes installed</tspan>
<tspan x="10" y="42"></tspan>
<tspan x="10" y="58">node_modules</tspan>
<tspan x="10" y="74">└─┬ git-fish@0.0.6 </tspan>
<tspan x="10" y="90">  ├── async@0.9.2 </tspan>
<tspan x="10" y="106">  ├─┬ forever@0.13.0 </tspan>
<tspan x="10" y="122">  │ ├─┬ cliff@0.1.10 </tspan>
<tspan x="10" y="138">  │ │ ├── colors@1.0.3 </tspan>
<tspan x="10" y="154">  │ │ └── eyes@0.1.8 </tspan>
<tspan x="10" y="170">  │ ├── colors@0.6.2 </tspan>
<tspan x="10" y="186">  │ ├─┬ flatiron@0.4.3 </tspan>
<tspan x="10" y="202">  │ │ ├─┬ broadway@0.3.6 </tspan>
<tspan x="10" y="218">  │ │ │ ├── cliff@0.1.9 </tspan>
<tspan x="10" y="234">  │ │ │ └─┬ winston@0.8.0 </tspan>
<tspan x="10" y="250">  │ │ │   └── async@0.2.10 </tspan>
<tspan x="10" y="266">  │ │ ├── director@1.2.7 </tspan>
<tspan x="10" y="282">  │ │ ├── optimist@0.6.0 </tspan>
<tspan x="10" y="298">  │ │ └─┬ prompt@0.2.14 </tspan>
<tspan x="10" y="314">  │ │   ├─┬ read@1.0.7 </tspan>
<tspan x="10" y="330">  │ │   │ └── mute-stream@0.0.7 </tspan>
<tspan x="10" y="346">  │ │   └── revalidator@0.1.8 </tspan>
<tspan x="10" y="362">  │ ├─┬ forever-monitor@1.5.2 </tspan>
<tspan x="10" y="378">  │ │ ├─┬ minimatch@1.0.0 </tspan>
<tspan x="10" y="394">  │ │ │ ├── lru-cache@2.7.3 </tspan>
<tspan x="10" y="410">  │ │ │ └── sigmund@1.0.1 </tspan>
<tspan x="10" y="426">  │ │ ├─┬ ps-tree@0.0.3 </tspan>
<tspan x="10" y="442">  │ │ │ └─┬ event-stream@0.5.3 </tspan>
<tspan x="10" y="458">  │ │ │   └── optimist@0.2.8 </tspan>
<tspan x="10" y="474">  │ │ └─┬ watch@0.13.0 </tspan>
<tspan x="10" y="490">  │ │   └── minimist@1.2.0 </tspan>
<tspan x="10" y="506">  │ ├─┬ nconf@0.6.9 </tspan>
<tspan x="10" y="522">  │ │ ├── async@0.2.9 </tspan>
<tspan x="10" y="538">  │ │ ├── ini@1.3.4 </tspan>
<tspan x="10" y="554">  │ │ └── optimist@0.6.0 </tspan>
<tspan x="10" y="570">  │ ├─┬ nssocket@0.5.3 </tspan>
<tspan x="10" y="586">  │ │ ├── eventemitter2@0.4.14 </tspan>
<tspan x="10" y="602">  │ │ └── lazy@1.0.11 </tspan>
<tspan x="10" y="618">  │ ├─┬ optimist@0.6.1 </tspan>
<tspan x="10" y="634">  │ │ ├── minimist@0.0.10 </tspan>
<tspan x="10" y="650">  │ │ └── wordwrap@0.0.3 </tspan>
<tspan x="10" y="666">  │ ├── timespan@2.3.0 </tspan>
<tspan x="10" y="682">  │ ├─┬ utile@0.2.1 </tspan>
<tspan x="10" y="698">  │ │ ├── async@0.2.10 </tspan>
<tspan x="10" y="714">  │ │ ├── deep-equal@1.0.1 </tspan>
<tspan x="10" y="730">  │ │ ├── i@0.3.5 </tspan>
<tspan x="10" y="746">  │ │ ├─┬ mkdirp@0.5.1 </tspan>
<tspan x="10" y="762">  │ │ │ └── minimist@0.0.8 </tspan>
<tspan x="10" y="778">  │ │ ├── ncp@0.4.2 </tspan>
<tspan x="10" y="794">  │ │ └─┬ rimraf@2.6.1 </tspan>
<tspan x="10" y="810">  │ │   └─┬ glob@7.1.1 </tspan>
<tspan x="10" y="826">  │ │     ├── fs.realpath@1.0.0 </tspan>
<tspan x="10" y="842">  │ │     ├─┬ inflight@1.0.6 </tspan>
<tspan x="10" y="858">  │ │     │ └── wrappy@1.0.2 </tspan>
<tspan x="10" y="874">  │ │     ├── inherits@2.0.3 </tspan>
<tspan x="10" y="890">  │ │     ├─┬ minimatch@3.0.3 </tspan>
<tspan x="10" y="906">  │ │     │ └─┬ brace-expansion@1.1.7 </tspan>
<tspan x="10" y="922">  │ │     │   ├── balanced-match@0.4.2 </tspan>
<tspan x="10" y="938">  │ │     │   └── concat-map@0.0.1 </tspan>
<tspan x="10" y="954">  │ │     ├── once@1.4.0 </tspan>
<tspan x="10" y="970">  │ │     └── path-is-absolute@1.0.1 </tspan>
<tspan x="10" y="986">  │ └─┬ winston@0.8.3 </tspan>
<tspan x="10" y="1002">  │   ├── async@0.2.10 </tspan>
<tspan x="10" y="1018">  │   ├── cycle@1.0.3 </tspan>
<tspan x="10" y="1034">  │   ├── isstream@0.1.2 </tspan>
<tspan x="10" y="1050">  │   ├── pkginfo@0.3.1 </tspan>
<tspan x="10" y="1066">  │   └── stack-trace@0.0.9 </tspan>
<tspan x="10" y="1082">  ├─┬ subarg@1.0.0 </tspan>
<tspan x="10" y="1098">  │ └── minimist@1.2.0 </tspan>
<tspan x="10" y="1114">  └── which@1.0.9</tspan>
</text>
</svg>
